<?xml version="1.0" encoding="utf-8"?>
<!-- Generator: Adobe Illustrator 23.0.3, SVG Export Plug-In . SVG Version: 6.00 Build 0)  -->
<svg version="1.1" id="Capa_1" xmlns="http://www.w3.org/2000/svg" xmlns:xlink="http://www.w3.org/1999/xlink" x="0px" y="0px"
	 viewBox="0 0 50 40" style="enable-background:new 0 0 50 40;" xml:space="preserve">
<style type="text/css">
	.st0{fill:#003FA2;}
</style>
<g>
	<g>
		<g>
			<path class="st0" d="M25,16.56c-0.11,0-0.22-0.02-0.32-0.06l-8.77-3.57c-0.32-0.13-0.53-0.44-0.53-0.78
				c0-0.35,0.21-0.65,0.53-0.78l7.61-3.09c0.95-0.39,2-0.39,2.96,0l7.61,3.09c0.32,0.13,0.53,0.44,0.53,0.78
				c0,0.34-0.21,0.65-0.53,0.78l-8.77,3.57C25.22,16.54,25.11,16.56,25,16.56z M18.47,12.15L25,14.81l6.53-2.65l-5.69-2.31
				c-0.54-0.22-1.14-0.22-1.68,0L18.47,12.15z"/>
		</g>
		<g>
			<path class="st0" d="M25,28.25c-0.53,0-1.05-0.1-1.55-0.31l-6.65-2.7c-0.86-0.35-1.42-1.18-1.42-2.12V12.15
				c0-0.47,0.38-0.85,0.85-0.85c0.47,0,0.84,0.38,0.84,0.85v10.98c0,0.24,0.15,0.46,0.37,0.55l6.65,2.7c0.59,0.24,1.24,0.24,1.82,0
				l6.65-2.7c0.22-0.09,0.37-0.31,0.37-0.55V12.15c0-0.47,0.38-0.85,0.84-0.85c0.47,0,0.84,0.38,0.84,0.85v10.98
				c0,0.93-0.56,1.76-1.42,2.12l-6.65,2.7C26.05,28.15,25.52,28.25,25,28.25z"/>
		</g>
		<g>
			<path class="st0" d="M25,28.25c-0.47,0-0.85-0.38-0.85-0.84V15.72c0-0.47,0.38-0.85,0.85-0.85c0.47,0,0.85,0.38,0.85,0.85v11.69
				C25.85,27.87,25.47,28.25,25,28.25z"/>
		</g>
		<g>
			<path class="st0" d="M20.77,14.84c-0.34,0-0.65-0.2-0.78-0.53c-0.18-0.43,0.03-0.93,0.46-1.1l8.77-3.57
				c0.43-0.17,0.93,0.03,1.1,0.47c0.18,0.43-0.03,0.93-0.46,1.1l-8.77,3.57C20.98,14.82,20.87,14.84,20.77,14.84z"/>
		</g>
		<g>
			<path class="st0" d="M20.76,17.4c-0.47,0-0.84-0.38-0.84-0.84V14c0-0.47,0.38-0.84,0.84-0.84c0.47,0,0.85,0.38,0.85,0.84v2.56
				C21.61,17.02,21.23,17.4,20.76,17.4z"/>
		</g>
		<g>
			<path class="st0" d="M18.95,23.65c-0.11,0-0.21-0.02-0.32-0.06l-0.64-0.26c-0.43-0.18-0.64-0.67-0.46-1.1
				c0.18-0.43,0.67-0.64,1.1-0.47l0.64,0.26c0.44,0.18,0.64,0.67,0.47,1.1C19.6,23.45,19.29,23.65,18.95,23.65z"/>
		</g>
	</g>
	<g>
		<path class="st0" d="M43.09,33.33H6.91c-2.26,0-4.09-1.84-4.09-4.09v-24c0-2.25,1.83-4.09,4.09-4.09h36.19
			c2.26,0,4.09,1.84,4.09,4.09v24C47.19,31.49,45.35,33.33,43.09,33.33z M6.91,2.84c-1.32,0-2.4,1.08-2.4,2.4v24
			c0,1.32,1.08,2.4,2.4,2.4h36.19c1.32,0,2.4-1.08,2.4-2.4v-24c0-1.32-1.08-2.4-2.4-2.4H6.91z"/>
	</g>
	<g>
		<path class="st0" d="M36.59,6.55h-0.61c-0.47,0-0.85-0.38-0.85-0.84c0-0.47,0.38-0.85,0.85-0.85h0.61c0.47,0,0.84,0.38,0.84,0.85
			C37.43,6.17,37.05,6.55,36.59,6.55z"/>
	</g>
	<g>
		<path class="st0" d="M39.92,6.55h-0.61c-0.47,0-0.84-0.38-0.84-0.84c0-0.47,0.38-0.85,0.84-0.85h0.61c0.47,0,0.85,0.38,0.85,0.85
			C40.76,6.17,40.38,6.55,39.92,6.55z"/>
	</g>
	<g>
		<path class="st0" d="M43.25,6.55h-0.61c-0.47,0-0.85-0.38-0.85-0.84c0-0.47,0.38-0.85,0.85-0.85h0.61c0.47,0,0.84,0.38,0.84,0.85
			C44.09,6.17,43.71,6.55,43.25,6.55z"/>
	</g>
	<g>
		<path class="st0" d="M11.26,22.48c-0.24,0-0.47-0.1-0.64-0.29l-3.6-4.16c-0.27-0.32-0.27-0.79,0-1.11l3.6-4.16
			c0.3-0.35,0.84-0.39,1.19-0.09c0.36,0.31,0.39,0.84,0.09,1.19l-3.12,3.61l3.12,3.61c0.31,0.35,0.27,0.89-0.09,1.19
			C11.66,22.42,11.46,22.48,11.26,22.48z"/>
	</g>
	<g>
		<path class="st0" d="M38.74,22.48c-0.2,0-0.39-0.07-0.55-0.21c-0.35-0.31-0.39-0.84-0.09-1.19l3.12-3.61l-3.12-3.61
			c-0.31-0.35-0.27-0.89,0.09-1.19c0.35-0.31,0.89-0.27,1.19,0.09l3.6,4.16c0.28,0.32,0.28,0.79,0,1.11l-3.6,4.16
			C39.21,22.38,38.97,22.48,38.74,22.48z"/>
	</g>
	<g>
		<path class="st0" d="M34.24,39.51H15.76c-0.47,0-0.85-0.38-0.85-0.84c0-2.12,1.72-3.84,3.84-3.84h12.5c2.11,0,3.83,1.72,3.83,3.84
			C35.09,39.14,34.71,39.51,34.24,39.51z M16.78,37.82h16.44c-0.33-0.76-1.09-1.3-1.97-1.3h-12.5
			C17.87,36.53,17.11,37.06,16.78,37.82z"/>
	</g>
</g>
</svg>
