<?xml version="1.0" encoding="utf-8"?>
<!-- Generator: Adobe Illustrator 23.0.3, SVG Export Plug-In . SVG Version: 6.00 Build 0)  -->
<svg version="1.1" id="Capa_1" xmlns="http://www.w3.org/2000/svg" xmlns:xlink="http://www.w3.org/1999/xlink" x="0px" y="0px"
	 viewBox="0 0 50 40" style="enable-background:new 0 0 50 40;" xml:space="preserve">
<style type="text/css">
	.st0{fill:#003FA2;}
</style>
<g>
	<path class="st0" d="M12.41,23.44c-1.09,0-2.04,0.61-2.55,1.49c-0.51-0.88-1.46-1.49-2.55-1.49c-1.63,0-2.96,1.33-2.96,2.96
		c0,1.63,1.33,2.96,2.96,2.96c1.09,0,2.04-0.6,2.55-1.49c0.51,0.89,1.46,1.49,2.55,1.49c1.63,0,2.95-1.33,2.95-2.96
		C15.36,24.77,14.03,23.44,12.41,23.44z"/>
	<path class="st0" d="M48.71,23.64c0-0.02-0.01-0.03-0.01-0.04c-0.02-0.08-0.04-0.16-0.07-0.24c0,0,0,0,0,0
		c-0.07-0.16-0.16-0.3-0.28-0.43l-8.61-9.16c-0.27-0.29-0.65-0.46-1.06-0.46H33.2V3.18c0-0.8-0.65-1.46-1.46-1.46H21.62h-8.79H2.72
		c-0.81,0-1.46,0.66-1.46,1.46V30.6c0,2.17,1.76,3.94,3.94,3.94c0.24,2.43,2.29,4.33,4.77,4.33c2.49,0,4.54-1.9,4.78-4.33h14.5
		c0.56,0,1.09-0.12,1.57-0.33c0.25,0.2,0.57,0.33,0.91,0.33h2.15c0.24,2.43,2.29,4.33,4.78,4.33c2.49,0,4.54-1.9,4.78-4.33h0.07
		c2.88,0,5.22-2.34,5.22-5.22v-5.4C48.74,23.83,48.73,23.73,48.71,23.64z M38.67,32.19c1.04,0,1.89,0.85,1.89,1.89
		c0,1.04-0.85,1.89-1.89,1.89c-1.04,0-1.89-0.84-1.89-1.89C36.78,33.04,37.63,32.19,38.67,32.19z M38.67,29.27
		c-1.75,0-3.29,0.95-4.13,2.36H33.2V30.6V16.23h4.84l5.87,6.24h-6.94c-0.39,0-0.7-0.32-0.7-0.7v-2.63c0-0.8-0.65-1.46-1.46-1.46
		c-0.81,0-1.46,0.66-1.46,1.46v2.63c0,1.99,1.63,3.62,3.62,3.62h6.45c-0.66,0.14-1.15,0.73-1.15,1.42c0,0.8,0.65,1.46,1.46,1.46h1.5
		c0.22,0,0.42-0.05,0.6-0.13v1.19c0,1.27-1.03,2.3-2.3,2.3h-0.73C41.96,30.23,40.42,29.27,38.67,29.27z M45.82,25.49
		c-0.09-0.04-0.19-0.08-0.29-0.1h0.29V25.49z M9.98,32.19c1.04,0,1.89,0.85,1.89,1.89c0,1.04-0.84,1.89-1.89,1.89
		c-1.04,0-1.89-0.84-1.89-1.89C8.09,33.04,8.93,32.19,9.98,32.19z M9.98,29.27c-1.75,0-3.28,0.95-4.12,2.36H5.21
		c-0.56,0-1.03-0.46-1.03-1.03V4.64h7.2v8.47c0,0.39,0.16,0.76,0.43,1.03c1.25,1.24,3.07,1.65,4.7,1.09c0.47-0.16,0.97-0.16,1.44,0
		c0.49,0.17,0.99,0.25,1.49,0.25c1.21,0,2.35-0.48,3.21-1.34c0.28-0.27,0.44-0.65,0.44-1.03V4.64h7.19v10.13V30.6
		c0,0.57-0.46,1.03-1.02,1.03H14.1C13.26,30.23,11.73,29.27,9.98,29.27z M20.17,12.39c-0.39,0.19-0.85,0.23-1.28,0.09
		c-1.08-0.37-2.22-0.37-3.32,0c-0.42,0.14-0.89,0.12-1.27-0.09V4.64h5.87V12.39z"/>
</g>
</svg>
