<?xml version="1.0" encoding="utf-8"?>
<!-- Generator: Adobe Illustrator 23.0.3, SVG Export Plug-In . SVG Version: 6.00 Build 0)  -->
<svg version="1.1" id="Capa_1" xmlns="http://www.w3.org/2000/svg" xmlns:xlink="http://www.w3.org/1999/xlink" x="0px" y="0px"
	 viewBox="0 0 50 40" style="enable-background:new 0 0 50 40;" xml:space="preserve">
<style type="text/css">
	.st0{fill:#003FA2;}
</style>
<g id="XMLID_124_">
	<g id="XMLID_136_">
		<rect x="9.67" y="19.24" class="st0" width="1.74" height="11.81"/>
	</g>
	<g id="XMLID_130_">
		<g id="XMLID_135_">
			<polygon class="st0" points="24.8,34.59 9.67,31.93 9.67,19.24 11.41,19.24 11.41,30.47 25.1,32.88 			"/>
		</g>
		<g id="XMLID_134_">
			<polygon class="st0" points="25.82,28.51 24.08,28.51 24.08,18.13 10.39,15.72 10.69,14.01 25.82,16.68 			"/>
		</g>
		<g id="XMLID_133_">
			<polygon class="st0" points="24.08,34.77 24.08,16.68 39.2,14.01 39.51,15.72 25.82,18.14 25.82,32.7 38.49,30.47 38.49,19.18 
				40.22,19.18 40.22,31.78 39.5,32.05 			"/>
		</g>
		<g id="XMLID_132_">
			<polygon class="st0" points="10.69,15.57 10.55,14.79 9.67,14.87 9.67,13.99 24.8,11.32 25.1,13.03 			"/>
		</g>
		<g id="XMLID_131_">
			<polygon class="st0" points="39.2,15.57 24.8,13.04 25.1,11.33 40.22,13.99 40.22,14.72 39.34,14.79 			"/>
		</g>
	</g>
	<g id="XMLID_129_">
		<rect x="38.49" y="19.18" class="st0" width="1.74" height="11.87"/>
	</g>
	<g id="XMLID_128_">
		<polygon class="st0" points="17.65,21.66 0.88,18.05 10.19,13.93 10.89,15.51 6.47,17.47 17.45,19.84 24.59,16.61 25.31,18.2 		
			"/>
	</g>
	<g id="XMLID_127_">
		<polygon class="st0" points="10.2,15.52 0.8,11.55 17.65,7.92 25.31,11.39 24.59,12.97 17.45,9.74 6.55,12.09 10.88,13.92 		"/>
	</g>
	<g id="XMLID_126_">
		<polygon class="st0" points="39.8,15.52 39.12,13.92 43.45,12.09 32.54,9.74 25.41,12.97 24.69,11.39 32.35,7.92 49.2,11.55 		"/>
	</g>
	<g id="XMLID_125_">
		<polygon class="st0" points="32.66,21.42 24.72,18.21 25.38,16.6 32.83,19.62 43.46,17.46 39.01,15.52 39.7,13.92 49.19,18.06 		
			"/>
	</g>
</g>
</svg>
