<?xml version="1.0" encoding="utf-8"?>
<!-- Generator: Adobe Illustrator 23.0.3, SVG Export Plug-In . SVG Version: 6.00 Build 0)  -->
<svg version="1.1" id="Capa_1" xmlns="http://www.w3.org/2000/svg" xmlns:xlink="http://www.w3.org/1999/xlink" x="0px" y="0px"
	 viewBox="0 0 50 40" style="enable-background:new 0 0 50 40;" xml:space="preserve">
<style type="text/css">
	.st0{fill:#003FA2;}
</style>
<g>
	<path class="st0" d="M35.82,25.52c-0.49,0.55-2.86,3.19-3.71,4.47c-0.66,1.01-0.47,2.37,0.45,3.17l0.26,0.23l4.38-3.58l2.51-1.42
		l-0.41-0.72l-2.57,1.46l-3.87,3.16c-0.4-0.54-0.45-1.28-0.07-1.85c0.9-1.35,3.69-4.44,3.72-4.47l0.09-0.1l0.01-0.13
		c0.05-0.39,0.12-0.76,0.23-1.13c0.3-1.02,1.03-2.52,2.75-3.82c0.55-0.41,1.14-0.75,1.77-1c1.1-0.46,2.36-0.55,3.63-0.3
		c1.09,0.21,2.2,0.3,3.3,0.27l-0.03-0.82c-1.02,0.03-2.09-0.05-3.11-0.26c-1.43-0.29-2.85-0.17-4.1,0.35
		c-0.7,0.28-1.35,0.65-1.96,1.11c-1.91,1.43-2.71,3.1-3.05,4.24C35.95,24.76,35.87,25.14,35.82,25.52z"/>
	<path class="st0" d="M43.75,27.31L38.27,33c-0.51,0.52-1.15,0.87-1.87,1.01c-2.36,0.46-4.11,0.72-4.78,0.72l-7.13-0.61
		c0.13-0.3,0.38-0.56,0.69-0.74c0.33-0.18,1.03-0.13,1.66-0.08c0.29,0.03,0.58,0.05,0.89,0.05l3.58-0.34l-0.08-0.81l-3.53,0.34
		c-0.25,0-0.52-0.03-0.79-0.05c-0.77-0.06-1.58-0.13-2.13,0.18c-0.04,0.02-0.07,0.05-0.11,0.08l-1.02-0.02l0.03-0.13
		c0.1-0.26,0.33-0.47,0.61-0.6l0.23-0.09c0.18-0.07,0.38-0.11,0.57-0.11c0.46,0,0.97,0.01,1.48,0.02c0.64,0.01,1.26,0.02,1.86,0.02
		l2-0.19l-0.08-0.82l-1.96,0.19c-0.54,0-1.18-0.01-1.81-0.02c-0.48-0.01-0.95-0.05-1.4-0.03l0.36-0.12c0,0-0.01-0.1,0.07-0.21
		c0.17-0.21,0.82-0.68,3.36-0.46l0.06,0l1.9-0.41l-0.17-0.8l-1.79,0.39c-0.56-0.05-1.07-0.06-1.52-0.05
		c0.21-0.26,0.6-0.66,1.26-0.84l2.52-0.29L31.68,28l-0.32-0.76l-0.27,0.12l-2.52,0.29c-1.43,0.38-1.98,1.48-2.01,1.52l0.32,0.16
		c-0.93,0.1-1.56,0.36-1.9,0.79c-0.28,0.35-0.26,0.71-0.23,0.88c-0.18,0.03-0.35,0.07-0.51,0.14l-0.24,0.1
		c-0.49,0.2-0.88,0.59-1.06,1.05l0.38,0.16l-0.43-0.04c-0.09,0.27-0.05,0.57,0.11,0.8c0.16,0.23,0.43,0.37,0.71,0.37h0.17
		c-0.07,0.13-0.14,0.26-0.18,0.4c-0.04,0.12-0.16,0.46,0.03,0.73c0.1,0.14,0.26,0.22,0.41,0.22h0l7.47,0.64
		c1.03,0,3.56-0.46,4.97-0.73c0.88-0.17,1.68-0.6,2.3-1.25l5.51-5.72c0.86-1.11,2.16-1.74,3.56-1.74v-0.82
		C46.28,25.29,44.75,26.04,43.75,27.31z"/>
	<path class="st0" d="M13.74,16.93c0.11-0.37,0.19-0.75,0.24-1.13c0.49-0.55,2.86-3.19,3.71-4.47c0.67-1.01,0.47-2.37-0.45-3.18
		l-0.26-0.22l-4.37,3.58l-2.51,1.42l0.4,0.71l2.57-1.46l3.87-3.16c0.41,0.54,0.45,1.28,0.07,1.85c-0.9,1.35-3.69,4.43-3.72,4.47
		l-0.09,0.1l-0.02,0.13c-0.04,0.39-0.12,0.76-0.23,1.13c-0.3,1.02-1.03,2.51-2.75,3.82c-0.54,0.4-1.13,0.74-1.77,1
		c-1.11,0.45-2.37,0.56-3.63,0.3c-1.08-0.22-2.2-0.3-3.3-0.27l0.03,0.82c1.02-0.03,2.09,0.06,3.11,0.26c0.5,0.1,1,0.15,1.5,0.15
		c0.91,0,1.79-0.17,2.6-0.5c0.7-0.29,1.36-0.66,1.96-1.11C12.59,19.74,13.4,18.07,13.74,16.93z"/>
	<path class="st0" d="M6.04,14.01l5.48-5.68c0.5-0.53,1.15-0.88,1.87-1.02c3.1-0.59,4.33-0.72,4.78-0.72L25.3,7.2
		c-0.13,0.3-0.38,0.56-0.7,0.74c-0.33,0.19-1.04,0.13-1.65,0.08c-0.3-0.03-0.59-0.05-0.9-0.05l-3.58,0.34l0.08,0.82l3.54-0.34
		c0.25,0,0.52,0.03,0.8,0.05C23.66,8.9,24.46,8.96,25,8.65c0.04-0.02,0.07-0.05,0.11-0.07l1.04,0.04l-0.04,0.09
		c-0.1,0.26-0.33,0.48-0.7,0.63l-0.14,0.06c-0.18,0.07-0.37,0.11-0.57,0.11c-0.46,0-0.97-0.01-1.48-0.02
		c-0.64-0.01-1.32-0.02-1.86-0.02l-2,0.19l0.08,0.82l1.96-0.19c0.54,0,1.17,0.01,1.81,0.02c0.48,0.01,0.96,0.04,1.41,0.02
		l-0.37,0.11c0,0.02,0.02,0.12-0.09,0.24c-0.18,0.2-0.85,0.65-3.34,0.45l-0.06,0l-1.91,0.41l0.17,0.8l1.79-0.38
		c0.56,0.04,1.07,0.06,1.53,0.04c-0.2,0.26-0.6,0.66-1.26,0.84l-2.52,0.29l-2.68,1.15l0.33,0.75l2.52-1.09l2.52-0.3
		c1.43-0.38,1.98-1.48,2.01-1.52l-0.32-0.16c0.93-0.1,1.57-0.35,1.91-0.78c0.28-0.36,0.26-0.72,0.23-0.88
		c0.18-0.03,0.35-0.07,0.51-0.13l0.24-0.1c0.49-0.2,0.87-0.58,1.06-1.05l0.04-0.12c0.09-0.27,0.05-0.57-0.11-0.79
		c-0.16-0.23-0.43-0.37-0.71-0.37h-0.17c0.07-0.13,0.14-0.26,0.19-0.4c0.07-0.2,0.14-0.49-0.03-0.73c-0.1-0.14-0.26-0.22-0.41-0.22
		h0L18.2,5.77c-0.76,0-2.43,0.25-4.97,0.73c-0.88,0.17-1.68,0.61-2.3,1.25l-5.51,5.72c-0.86,1.1-2.16,1.74-3.57,1.74v0.82
		C3.52,16.03,5.06,15.28,6.04,14.01z"/>
	<path class="st0" d="M33.72,27.05v-0.82H20.6l6.75-3.47l6.83,3.51l0.37-0.73l-6.31-3.24l7.14-3.66v4.49h0.82v-5.57h-0.34l-6.82-2.2
		l-13.56-0.02v0.82h13.37l4.33,1.4H18.96l-4-1.29l-0.25,0.78l3.77,1.21v7.83l-6.1-1.96l0.01-2.69l-0.82-0.01l-0.02,3.29l6.93,2.23
		v0.09H33.72z M19.31,25.96v-7.33l7.14,3.66L19.31,25.96z M20.59,18.38h13.5l-6.75,3.46L20.59,18.38z"/>
</g>
</svg>
