<?xml version="1.0" encoding="utf-8"?>
<!-- Generator: Adobe Illustrator 23.0.3, SVG Export Plug-In . SVG Version: 6.00 Build 0)  -->
<svg version="1.1" id="Capa_1" xmlns="http://www.w3.org/2000/svg" xmlns:xlink="http://www.w3.org/1999/xlink" x="0px" y="0px"
	 viewBox="0 0 50 40" style="enable-background:new 0 0 50 40;" xml:space="preserve">
<style type="text/css">
	.st0{fill:#003FA2;}
</style>
<g id="XMLID_26_">
	<g id="XMLID_34_">
		<g id="XMLID_37_">
			<g id="XMLID_89_">
				<path class="st0" d="M12.06,38.9l-0.01-15.85l23.36-0.01l0.01,15.85L12.06,38.9z M13.43,24.42l0.01,13.1l20.6-0.01l-0.01-13.09
					L13.43,24.42z"/>
			</g>
			<g id="XMLID_88_">
				<rect x="24.96" y="32.73" class="st0" width="6.58" height="1.38"/>
			</g>
			<g id="XMLID_87_">
				<rect x="24.96" y="29.75" class="st0" width="6.96" height="1.38"/>
			</g>
			<g id="XMLID_84_">
				<g id="XMLID_86_">
					<rect x="15.72" y="28.31" class="st0" width="1.38" height="6.77"/>
				</g>
				<g id="XMLID_85_">
					<polygon class="st0" points="17.05,30.44 16.41,29.53 15.8,30.43 14.66,29.66 16.4,27.09 18.18,29.66 					"/>
				</g>
			</g>
			<g id="XMLID_38_">
				<g id="XMLID_83_">
					<rect x="20.64" y="28.31" class="st0" width="1.38" height="6.78"/>
				</g>
				<g id="XMLID_82_">
					<polygon class="st0" points="21.97,30.44 21.33,29.53 20.72,30.43 19.58,29.66 21.32,27.09 23.1,29.65 					"/>
				</g>
			</g>
		</g>
		<g id="XMLID_36_">
			<polygon class="st0" points="35.2,38.7 34.26,37.7 36.41,35.69 36.41,23.44 35.11,24.3 34.35,23.15 37.79,20.88 37.79,36.29 			
				"/>
		</g>
		<g id="XMLID_35_">
			<polygon class="st0" points="13.05,24.35 12.44,23.12 15.96,21.47 37.1,21.47 37.1,22.85 16.12,22.85 			"/>
		</g>
	</g>
	<g id="XMLID_29_">
		<g id="XMLID_33_">
			<path class="st0" d="M26.38,11.86h-2.2c-0.67,0-1.31-0.25-1.8-0.69L19.1,8.15c-0.62-0.57-0.97-1.34-0.97-2.17V1.1h14.29v4.88
				c0,0.81-0.35,1.6-0.96,2.16l-3.28,3.02C27.7,11.61,27.05,11.86,26.38,11.86z M19.51,2.48v3.5c0,0.43,0.19,0.84,0.52,1.15
				l3.28,3.02c0.23,0.21,0.54,0.33,0.87,0.33h2.2c0.32,0,0.64-0.12,0.87-0.33l3.28-3.02c0.33-0.31,0.52-0.72,0.52-1.15v-3.5H19.51z"
				/>
		</g>
		<g id="XMLID_32_">
			<path class="st0" d="M24.94,19.97c-0.52,0-1.03-0.09-1.52-0.27c-1.72-0.64-2.77-2.39-2.49-4.16c0.18-1.13,0.92-2.22,1.98-2.91
				c0.47-0.3,0.77-0.87,0.77-1.45l1.38-0.02v0.02c0,1.05-0.53,2.05-1.4,2.61c-0.74,0.48-1.25,1.21-1.37,1.96
				c-0.17,1.12,0.51,2.24,1.62,2.66c0.85,0.32,1.85,0.22,2.61-0.26c0,0,0.06-0.04,0.15-0.12c-0.13,0.04-0.27,0.08-0.41,0.1
				c-1.34,0.24-2.63-0.53-2.9-1.75c-0.15-0.68,0.05-1.42,0.54-1.96c0.36-0.39,0.77-0.53,1.11-0.63c0.18-0.06,0.33-0.11,0.44-0.18
				c0.11-0.08,0.18-0.2,0.18-0.32v-2.12H27v2.12c0,0.57-0.29,1.12-0.77,1.45c-0.29,0.2-0.58,0.29-0.82,0.37
				c-0.26,0.08-0.4,0.13-0.5,0.24c-0.18,0.2-0.27,0.5-0.22,0.74c0.12,0.55,0.76,0.79,1.32,0.69c0.37-0.06,0.74-0.26,1.08-0.57
				c0.12-0.11,0.22-0.19,0.35-0.26c0.24-0.14,0.53-0.18,0.78-0.11c0.43,0.12,0.71,0.47,0.73,0.91c0.02,0.28-0.08,0.52-0.12,0.61
				c-0.66,1.35-1.49,1.9-1.58,1.96C26.57,19.75,25.75,19.97,24.94,19.97z"/>
		</g>
		<g id="XMLID_31_">
			<path class="st0" d="M22.38,7.63c-0.99,0-1.79-0.77-1.79-1.72c0-0.95,0.8-1.72,1.79-1.72c0.99,0,1.79,0.77,1.79,1.72h-1.38
				c0-0.38-0.83-0.38-0.83,0c0,0.19,0.19,0.35,0.41,0.35V7.63z"/>
		</g>
		<g id="XMLID_30_">
			<path class="st0" d="M28.27,7.63c-0.99,0-1.79-0.77-1.79-1.72c0-0.95,0.8-1.72,1.79-1.72s1.79,0.77,1.79,1.72h-1.38
				c0-0.38-0.83-0.38-0.83,0c0,0.19,0.18,0.35,0.41,0.35V7.63z"/>
		</g>
	</g>
	<g id="XMLID_28_">
		<path class="st0" d="M34.4,21.5l-7.97-4.38c-0.31-0.19-0.68-0.26-1.04-0.2l-0.22-1.36c0.68-0.1,1.39,0.03,1.98,0.38l1.56,0.95
			l6.35,3.39L34.4,21.5z"/>
	</g>
	<g id="XMLID_27_">
		
			<rect x="16.82" y="18.99" transform="matrix(0.8401 -0.5424 0.5424 0.8401 -7.6272 13.4814)" class="st0" width="4.46" height="1.38"/>
	</g>
</g>
</svg>
