<svg id="Capa_1" data-name="Capa 1" xmlns="http://www.w3.org/2000/svg" viewBox="0 0 300 150"><defs><style>.cls-1{fill:#fff;fill-rule:evenodd;}</style></defs><title>HOME IMAGENES 2019 ONEST</title><path class="cls-1" d="M81.35,60.84H97c2.44,3.72,5,7.44,7.44,11.16,2.48,3.57,5,7.34,7.44,11.11,1.33-3.77,2.81-7.44,4.29-11.11,1.29-3.67,2.62-7.44,4-11.16h12.63c-2,5.15-4.15,10.4-6.1,15.45q-3.07,7.86-6.3,15.59h-14.3c-2.62-3.91-5.34-7.87-8-11.78s-5.2-7.77-7.92-11.68c-1.47,3.91-2.9,7.82-4.43,11.68s-3,7.87-4.48,11.78H68.67c2.14-5.25,4.29-10.39,6.38-15.59S79.25,66,81.35,60.84Z"/><path class="cls-1" d="M254.27,91.73H266.9c3.1-8.48,6.2-16.92,9.44-25.36,6.25,0,12.54,0,18.93,0,.61-1.86,1.24-3.57,2-5.39-29.46,0-58.59-.05-88-.05-7.15,0-12.59.77-16.4,2.25a12.34,12.34,0,0,0-7.68,7.15c-.9,2.48-.66,4.57.91,6a3.9,3.9,0,0,0,1.1.76c2.47,1.43,7.24,2.05,14,2.05h14.49a18.19,18.19,0,0,1,6.34.76,2,2,0,0,1,.91,2.82,4.9,4.9,0,0,1-3.2,2.71,26.79,26.79,0,0,1-7.68.81H148.19c-3.1-.23-5.34-.76-6.58-1.62-1.67-1.14-2.05-3.1-.91-5.86h34c.28-.81.57-1.62.9-2.48s.81-1.86,1.2-2.81c-11.4,0-22.65,0-33.81,0a11.34,11.34,0,0,1,5.82-5.39,28.44,28.44,0,0,1,10.58-1.72h20.08c.76-1.81,1.47-3.62,2.09-5.39H161.25c-9.39,0-16.78,1.29-22.26,4a22.37,22.37,0,0,0-11.21,11.35,2.77,2.77,0,0,1-.24.57,11.69,11.69,0,0,0-.52,7.3A9.06,9.06,0,0,0,131.79,89a24.89,24.89,0,0,0,6.48,2,19.64,19.64,0,0,0,4.44.62c1.67,0,3.76.09,6.19.09l63.36,0c7,0,12.3-.77,16-2.24s6.38-3.77,7.48-6.87c1-2.76.76-4.86-.91-6.29a5.15,5.15,0,0,0-.81-.57c-2.14-1.2-6.77-2-13.49-2H204.3A14,14,0,0,1,199,73a1.88,1.88,0,0,1-1.05-2.48,5.21,5.21,0,0,1,3.39-3,22.73,22.73,0,0,1,7.68-1c18.35,0,36.32.09,54.63.09C260.51,75,257.32,83.3,254.27,91.73Z"/><path class="cls-1" d="M40.25,53.55c2.57-.19,5.25-.29,8.06-.29,11.82,0,20.12,1.67,24.5,4.77a9.73,9.73,0,0,1,4,6,15.84,15.84,0,0,1-1.33,8.49c0,.05,0,.1-.1.14a24.31,24.31,0,0,1-5.67,8.49,28,28,0,0,1-9,6c-5.29,2.48-12.16,4.05-20.41,4.67V85.3c1.19-.14,2.29-.29,3.34-.48a27.53,27.53,0,0,0,6.91-2.33,18.67,18.67,0,0,0,8.73-9.78.18.18,0,0,0,0-.14c1.72-4.39,1.57-7.67-.62-9.82s-6.67-3-13.06-3c-1.86,0-3.67.1-5.34.24ZM5.07,72.71c0-.14.14-.28.19-.43a25.16,25.16,0,0,1,5.58-8.39,29.76,29.76,0,0,1,9-5.86c5.39-2.34,12.21-3.86,20.41-4.48V60A29.36,29.36,0,0,0,29.9,62.75a18.38,18.38,0,0,0-8.48,9.63,1.48,1.48,0,0,0-.14.33c-1.82,4.34-1.62,7.58.42,9.64,2.2,2.09,6.49,3.28,13.16,3.28a46.14,46.14,0,0,0,5.39-.33v6.58c-2.57.19-5.29.29-8.1.29-12.31,0-20.51-1.82-24.84-5A9,9,0,0,1,3.54,81.1,8.75,8.75,0,0,1,3.45,80v-.48A18.39,18.39,0,0,1,5.07,72.71Z"/><path class="cls-1" d="M228.43,95.41H216.84c-46.72,24.6-129.58,39.09-160,24.31C77.15,135.65,167.83,127.2,228.43,95.41Z"/><path class="cls-1" d="M267.28,56l9.06.24c25.55-49.06-106.65-40.81-182.07-.53l4.38.53C189.57,12.64,286.26,19.46,267.28,56Z"/><path class="cls-1" d="M102,111.76v-2.24c0-.1.14-.19.19-.29,2.43,0,4.86,0,7.29,0,2.82,0,3.29-1.85,1-2.24-1.62,0-3.24,0-4.86-.09-3.53.14.86-6.25,4-6.34h9c-.29.71-.57,1.48-.86,2.19-2.33,0-4.67,0-7,0-1.76-.14-3.43,2.1-1.1,1.91h2.82c4.34-.24,3.67,6.39-2.29,7.2Zm0-9.11h.76l.81-2.33H102Zm0-2.33v2.33H97.42c-4.58-.09-6.63,6.39-2.87,6.63h5l-1.24,2.62-6.63-.14a2.77,2.77,0,0,1-2.71-2.53v-1.48a8.78,8.78,0,0,1,8.63-7.43Zm0,9.2c-.53.71-1.1,1.48-1.62,2.24H102v-2.24Zm-13.11-9,0-.05h0v.05Zm0-1.62V95.74h2.52l-1.67,3.15Zm0-3.15v3.15H86.11l1.67-3.15Zm0,4.72v.05L83.35,111H79.92v-.43l5.38-10.11Zm0,7.29a7.32,7.32,0,0,0,0,1.48v-1.48Zm-9-7,.23-.29h-.23Zm0-.29v.29l-1.2,1.66H75.48l-2.72,4.92c-.71,1.57.15,2.19,2.68,2l-1.15,2.19c-6,.24-6.53-1.67-4.48-4.72l2.29-4.39H68.9l1.43-2h2.82L75.53,96h3.53l-2.48,4.48Zm0,10.11-.24.43h.24v-.43ZM50.6,111.76v-2.15a2.08,2.08,0,0,0,.28-.38c2.43,0,4.86,0,7.3,0,2.81,0,3.29-1.85,1-2.24-1.67,0-3.3,0-4.92-.09-3.52.14.86-6.25,4-6.34h9c-.28.71-.57,1.48-.85,2.19-2.34,0-4.68,0-7,0-1.72-.14-3.44,2.1-1.05,1.91h2.76c4.34-.24,3.67,6.39-2.29,7.2Zm0-8.49,1.52-2.81H50.6v2.81Zm0-4.38V96.36l.33-.62H54.6l-1.67,3.15Zm0-2.53v2.53H49.26l1.34-2.53Zm0,4.1v2.81L46.5,111H43.73v-1.67l4.72-8.87Zm0,9.15c-.48.72-1,1.43-1.53,2.15H50.6v-2.15Zm-6.87-7.24.91-1.82h-.91Zm0-1.82v1.82l-4.43,8.91a8.15,8.15,0,0,1-3.44,3.53v-5.39H37l3.24-6.86a8,8,0,0,0-4.39.28v-2.09h.39l7.48-.2Zm0,8.78L42.82,111h.91Zm-7.87-8.58v2.09a7.6,7.6,0,0,0-3.38,2.86c-1.67,2.44-1.72,3.77,3.38,3.72v5.39a8.83,8.83,0,0,1-3.67,1H26.33v-2.14h5.48c2.43,0,3.2-.72,3.2-1.77-8.68.15-8-2.47-6.44-5.48,1.43-2.62,4.29-5.38,7.29-5.62Zm-9.53,5.53a.84.84,0,0,0,.24-.34c1.52-2.24,1.33-4.24-.24-5.19Zm0-5.53v5.53A14.65,14.65,0,0,1,19.89,111V108.8a8,8,0,0,0,3.82-2.86c1.24-1.81.52-3.29-1.62-3.29a6.58,6.58,0,0,0-2.2.43v-2.14a11.76,11.76,0,0,1,3.86-.77,4.93,4.93,0,0,1,2.58.58Zm0,12.87v2.14H25.09l.95-2.14ZM14.65,95.88H13.41v2.2l1.24-2.2Zm5.24,5.06v2.14a8.44,8.44,0,0,0-3.81,2.86c-1.24,1.86-.52,3.34,1.57,3.34a6.4,6.4,0,0,0,2.24-.48V111a10.9,10.9,0,0,1-3.91.81,5,5,0,0,1-2.57-.62v-5.48A14.64,14.64,0,0,1,19.89,100.94Zm-6.48-5.06H11.69L2.78,111.52h3l7.68-13.44v-2.2Zm0,9.78v5.48c-1.53-1-1.72-3-.24-5.2C13.27,105.85,13.31,105.75,13.41,105.66Z"/></svg>