<svg id="Capa_1" data-name="Capa 1" xmlns="http://www.w3.org/2000/svg" viewBox="0 0 150 70"><defs><style>.cls-1{fill:#fff;fill-rule:evenodd;}</style></defs><title>HOME IMAGENES 2019 ONEST</title><path class="cls-1" d="M40.58,27.9h7.84c1.22,1.87,2.48,3.73,3.72,5.6s2.49,3.68,3.74,5.56c.66-1.88,1.41-3.72,2.15-5.56s1.31-3.73,2-5.6h6.33c-1,2.58-2.08,5.21-3.06,7.75s-2.08,5.23-3.16,7.81H53c-1.31-2-2.68-3.94-4-5.9s-2.61-3.9-4-5.86c-.74,2-1.46,3.92-2.22,5.86s-1.51,3.94-2.25,5.9H34.22c1.07-2.63,2.15-5.21,3.2-7.81S39.52,30.48,40.58,27.9Z"/><path class="cls-1" d="M127.28,43.39h6.34c1.55-4.25,3.11-8.49,4.73-12.72,3.13,0,6.29,0,9.49,0,.31-.93.62-1.79,1-2.7-14.77,0-29.38,0-44.1,0a23.63,23.63,0,0,0-8.23,1.13,6.17,6.17,0,0,0-3.85,3.58,2.56,2.56,0,0,0,.46,3,1.73,1.73,0,0,0,.55.38c1.24.72,3.63,1,7,1h7.27a9.16,9.16,0,0,1,3.18.38,1,1,0,0,1,.45,1.41,2.46,2.46,0,0,1-1.6,1.37,13.67,13.67,0,0,1-3.85.4h-32a7.22,7.22,0,0,1-3.3-.81c-.83-.57-1-1.55-.45-2.94h17c.14-.41.29-.81.45-1.24s.41-.94.6-1.41c-5.71,0-11.35,0-17,0a5.66,5.66,0,0,1,2.92-2.71,14.29,14.29,0,0,1,5.31-.86H89.75c.38-.9.74-1.81,1-2.7H80.64c-4.71,0-8.41.65-11.16,2a11.17,11.17,0,0,0-5.62,5.69,1.13,1.13,0,0,1-.12.28,5.77,5.77,0,0,0-.26,3.66A4.56,4.56,0,0,0,65.87,42a12.33,12.33,0,0,0,3.25,1,9.58,9.58,0,0,0,2.22.31c.84,0,1.89,0,3.11,0l31.77,0a22.15,22.15,0,0,0,8-1.13A5.92,5.92,0,0,0,118,38.8c.51-1.38.38-2.44-.45-3.15a2.27,2.27,0,0,0-.41-.29c-1.07-.6-3.39-1-6.76-1h-8.13A6.93,6.93,0,0,1,99.55,34,.93.93,0,0,1,99,32.73a2.56,2.56,0,0,1,1.69-1.53,11.3,11.3,0,0,1,3.85-.48c9.21,0,18.22.05,27.4.05C130.42,35,128.81,39.16,127.28,43.39Z"/><path class="cls-1" d="M20,24.24c1.29-.09,2.63-.14,4-.14,5.93,0,10.09.84,12.29,2.39a4.94,4.94,0,0,1,2,3,7.9,7.9,0,0,1-.67,4.25s0,0,0,.07a12.25,12.25,0,0,1-2.84,4.26,14,14,0,0,1-4.52,3A29.69,29.69,0,0,1,20,43.46v-3.3c.6-.07,1.15-.14,1.67-.23a13.63,13.63,0,0,0,3.47-1.18,9.32,9.32,0,0,0,4.37-4.9s0,0,0-.07c.86-2.2.78-3.85-.31-4.92s-3.35-1.51-6.55-1.51c-.94,0-1.85,0-2.68.12ZM2.33,33.85c0-.07.07-.14.09-.21a12.67,12.67,0,0,1,2.8-4.21,14.79,14.79,0,0,1,4.52-2.94A32,32,0,0,1,20,24.24v3.23a14.6,14.6,0,0,0-5.19,1.39,9.2,9.2,0,0,0-4.26,4.83l-.07.16c-.91,2.18-.81,3.8.22,4.83s3.25,1.65,6.6,1.65a22.19,22.19,0,0,0,2.7-.17v3.3c-1.29.1-2.66.15-4.07.15-6.16,0-10.28-.91-12.45-2.49a4.46,4.46,0,0,1-1.89-3.06,5.48,5.48,0,0,1-.05-.57v-.24A9.42,9.42,0,0,1,2.33,33.85Z"/><path class="cls-1" d="M114.33,45.23h-5.81c-23.43,12.34-65,19.61-80.26,12.2C38.47,65.41,83.94,61.18,114.33,45.23Z"/><path class="cls-1" d="M133.81,25.49l4.54.12C151.16,1,84.87,5.14,47.05,25.34l2.2.27C94.84,3.73,143.32,7.15,133.81,25.49Z"/><path class="cls-1" d="M51,53.43V52.31a1.3,1.3,0,0,1,.1-.15l3.65,0c1.41,0,1.65-.93.51-1.12-.82,0-1.63,0-2.44-.05-1.77.07.43-3.13,2-3.18h4.52l-.43,1.1-3.52,0c-.88-.07-1.72,1.05-.55,1h1.42C58.36,49.7,58,53,55,53.43Zm0-4.56h.38l.41-1.17H51Zm0-1.17v1.17H48.63c-2.29,0-3.32,3.2-1.43,3.32h2.48l-.62,1.31-3.32-.07a1.38,1.38,0,0,1-1.36-1.27v-.74A4.39,4.39,0,0,1,48.7,47.7Zm0,4.61c-.26.36-.55.74-.81,1.12H51V52.31Zm-6.57-4.52,0,0h0v0Zm0-.81V45.4h1.26L44.81,47Zm0-1.58V47H43l.83-1.58Zm0,2.37v0l-2.8,5.26H39.86v-.22l2.7-5.06Zm0,3.65a3,3,0,0,0,0,.74v-.74Zm-4.52-3.51.12-.14h-.12Zm0-.14v.14l-.6.84H37.63l-1.36,2.46c-.36.79.07,1.1,1.34,1L37,53.31c-3,.12-3.28-.83-2.25-2.36l1.15-2.2h-1.6l.71-1h1.41l1.2-2.25h1.77l-1.25,2.25Zm0,5.06-.12.22h.12v-.22Zm-14.7.6V52.36l.14-.2,3.66,0c1.41,0,1.65-.93.52-1.12-.83,0-1.65,0-2.46-.05-1.77.07.43-3.13,2-3.18h4.51c-.14.36-.28.74-.43,1.1l-3.51,0c-.86-.07-1.72,1.05-.53,1h1.39c2.17-.12,1.84,3.21-1.15,3.61Zm0-4.25.76-1.41h-.76v1.41Zm0-2.2V45.71l.16-.31h1.84L26.33,47Zm0-1.27V47h-.67l.67-1.27Zm0,2.06v1.41L23.1,53.05H21.71v-.84l2.37-4.44Zm0,4.59c-.24.36-.51.71-.77,1.07h.77V52.36Zm-3.45-3.64.46-.91h-.46Zm0-.91v.91l-2.22,4.47A4.09,4.09,0,0,1,17.77,55v-2.7h.57L20,48.82a4.05,4.05,0,0,0-2.2.14V47.91H18l3.75-.1Zm0,4.4-.45.84h.45Zm-3.94-4.3V49a3.79,3.79,0,0,0-1.7,1.44c-.84,1.22-.86,1.89,1.7,1.86V55a4.44,4.44,0,0,1-1.84.48H13V54.36h2.75c1.22,0,1.6-.35,1.6-.88-4.35.07-4-1.24-3.23-2.75a5.26,5.26,0,0,1,3.66-2.82ZM13,50.68a.4.4,0,0,0,.12-.16c.76-1.13.67-2.13-.12-2.61Zm0-2.77v2.77A7.32,7.32,0,0,1,9.76,53V52a4,4,0,0,0,1.91-1.43c.62-.91.27-1.65-.81-1.65a3.23,3.23,0,0,0-1.1.21V48a5.92,5.92,0,0,1,1.94-.39,2.46,2.46,0,0,1,1.29.29Zm0,6.45v1.08h-.62l.47-1.08ZM7.13,45.47H6.51v1.1l.62-1.1ZM9.76,48v1.07a4.19,4.19,0,0,0-1.91,1.44c-.62.93-.26,1.67.79,1.67A3.32,3.32,0,0,0,9.76,52V53a5.49,5.49,0,0,1-2,.4,2.51,2.51,0,0,1-1.29-.31V50.37A7.29,7.29,0,0,1,9.76,48ZM6.51,45.47H5.65L1.18,53.31H2.66l3.85-6.74v-1.1Zm0,4.9v2.75c-.77-.48-.86-1.48-.12-2.6C6.44,50.47,6.46,50.42,6.51,50.37Z"/></svg>